<?xml version="1.0" encoding="UTF-8" standalone="no"?>
<!DOCTYPE svg PUBLIC "-//W3C//DTD SVG 1.1//EN"
 "http://www.w3.org/Graphics/SVG/1.1/DTD/svg11.dtd">
<!-- Generated by graphviz version 2.47.0 (20210316.0004)
 -->
<!-- Title: dependencies Pages: 1 -->
<svg width="504pt" height="211pt"
 viewBox="0.00 0.00 504.00 211.00" xmlns="http://www.w3.org/2000/svg" xmlns:xlink="http://www.w3.org/1999/xlink">
<g id="graph0" class="graph" transform="scale(1 1) rotate(0) translate(4 207)">
<title>dependencies</title>
<polygon fill="white" stroke="transparent" points="-4,4 -4,-207 500,-207 500,4 -4,4"/>
<text text-anchor="start" x="227.01" y="-42.4" font-family="Times-12" font-weight="bold" font-size="14.00">Legend</text>
<polygon fill="#ffffb3" stroke="transparent" points="14,-10 14,-30 34,-30 34,-10 14,-10"/>
<text text-anchor="start" x="37.63" y="-15.4" font-family="Times-12" font-size="14.00"> &#160;Declarations</text>
<polygon fill="#8dd3c7" stroke="transparent" points="127,-10 127,-30 147,-30 147,-10 127,-10"/>
<text text-anchor="start" x="150.73" y="-15.4" font-family="Times-12" font-size="14.00"> &#160;Module</text>
<polygon fill="#80b1d3" stroke="transparent" points="213,-10 213,-30 233,-30 233,-10 213,-10"/>
<text text-anchor="start" x="236.78" y="-15.4" font-family="Times-12" font-size="14.00"> &#160;Bootstrap</text>
<polygon fill="#fdb462" stroke="transparent" points="310,-10 310,-30 330,-30 330,-10 310,-10"/>
<text text-anchor="start" x="333.67" y="-15.4" font-family="Times-12" font-size="14.00"> &#160;Providers</text>
<polygon fill="#fb8072" stroke="transparent" points="406,-10 406,-30 426,-30 426,-10 406,-10"/>
<text text-anchor="start" x="429.73" y="-15.4" font-family="Times-12" font-size="14.00"> &#160;Exports</text>
<g id="clust1" class="cluster">
<title>cluster_EventsModule</title>
<polygon fill="none" stroke="black" stroke-dasharray="1,5" points="16,-70 16,-195 480,-195 480,-70 16,-70"/>
</g>
<g id="clust3" class="cluster">
<title>cluster_EventsModule_imports</title>
<polygon fill="none" stroke="black" points="358,-78 358,-130 472,-130 472,-78 358,-78"/>
</g>
<g id="clust6" class="cluster">
<title>cluster_EventsModule_providers</title>
<polygon fill="none" stroke="black" points="24,-78 24,-130 350,-130 350,-78 24,-78"/>
</g>
<!-- PrismaModule -->
<g id="node1" class="node">
<title>PrismaModule</title>
<polygon fill="#8dd3c7" stroke="black" points="464.43,-122 461.43,-126 440.43,-126 437.43,-122 365.57,-122 365.57,-86 464.43,-86 464.43,-122"/>
<text text-anchor="middle" x="415" y="-99.8" font-family="Times,serif" font-size="14.00">PrismaModule</text>
</g>
<!-- EventsModule -->
<g id="node2" class="node">
<title>EventsModule</title>
<polygon fill="#8dd3c7" stroke="black" points="310.65,-187 307.65,-191 286.65,-191 283.65,-187 213.35,-187 213.35,-151 310.65,-151 310.65,-187"/>
<text text-anchor="middle" x="262" y="-164.8" font-family="Times,serif" font-size="14.00">EventsModule</text>
</g>
<!-- PrismaModule&#45;&gt;EventsModule -->
<g id="edge1" class="edge">
<title>PrismaModule&#45;&gt;EventsModule</title>
<path fill="none" stroke="black" d="M415,-122.11C415,-141.34 415,-169 415,-169 415,-169 320.83,-169 320.83,-169"/>
<polygon fill="black" stroke="black" points="320.83,-165.5 310.83,-169 320.83,-172.5 320.83,-165.5"/>
</g>
<!-- EventsRepository -->
<g id="node3" class="node">
<title>EventsRepository</title>
<ellipse fill="#fdb462" stroke="black" cx="262" cy="-104" rx="79.9" ry="18"/>
<text text-anchor="middle" x="262" y="-99.8" font-family="Times,serif" font-size="14.00">EventsRepository</text>
</g>
<!-- EventsRepository&#45;&gt;EventsModule -->
<g id="edge2" class="edge">
<title>EventsRepository&#45;&gt;EventsModule</title>
<path fill="none" stroke="black" d="M262,-122.11C262,-122.11 262,-140.99 262,-140.99"/>
<polygon fill="black" stroke="black" points="258.5,-140.99 262,-150.99 265.5,-140.99 258.5,-140.99"/>
</g>
<!-- EventsService -->
<g id="node4" class="node">
<title>EventsService</title>
<ellipse fill="#fdb462" stroke="black" cx="98" cy="-104" rx="66.05" ry="18"/>
<text text-anchor="middle" x="98" y="-99.8" font-family="Times,serif" font-size="14.00">EventsService</text>
</g>
<!-- EventsService&#45;&gt;EventsModule -->
<g id="edge3" class="edge">
<title>EventsService&#45;&gt;EventsModule</title>
<path fill="none" stroke="black" d="M98,-122.11C98,-141.34 98,-169 98,-169 98,-169 203.24,-169 203.24,-169"/>
<polygon fill="black" stroke="black" points="203.24,-172.5 213.24,-169 203.24,-165.5 203.24,-172.5"/>
</g>
</g>
</svg>
