<?xml version="1.0" encoding="UTF-8" standalone="no"?>
<!DOCTYPE svg PUBLIC "-//W3C//DTD SVG 1.1//EN"
 "http://www.w3.org/Graphics/SVG/1.1/DTD/svg11.dtd">
<!-- Generated by graphviz version 2.47.0 (20210316.0004)
 -->
<!-- Title: dependencies Pages: 1 -->
<svg width="691pt" height="211pt"
 viewBox="0.00 0.00 691.00 211.00" xmlns="http://www.w3.org/2000/svg" xmlns:xlink="http://www.w3.org/1999/xlink">
<g id="graph0" class="graph" transform="scale(1 1) rotate(0) translate(4 207)">
<title>dependencies</title>
<polygon fill="white" stroke="transparent" points="-4,4 -4,-207 687,-207 687,4 -4,4"/>
<text text-anchor="start" x="320.51" y="-42.4" font-family="Times-12" font-weight="bold" font-size="14.00">Legend</text>
<polygon fill="#ffffb3" stroke="transparent" points="107.5,-10 107.5,-30 127.5,-30 127.5,-10 107.5,-10"/>
<text text-anchor="start" x="131.13" y="-15.4" font-family="Times-12" font-size="14.00"> &#160;Declarations</text>
<polygon fill="#8dd3c7" stroke="transparent" points="220.5,-10 220.5,-30 240.5,-30 240.5,-10 220.5,-10"/>
<text text-anchor="start" x="244.23" y="-15.4" font-family="Times-12" font-size="14.00"> &#160;Module</text>
<polygon fill="#80b1d3" stroke="transparent" points="306.5,-10 306.5,-30 326.5,-30 326.5,-10 306.5,-10"/>
<text text-anchor="start" x="330.28" y="-15.4" font-family="Times-12" font-size="14.00"> &#160;Bootstrap</text>
<polygon fill="#fdb462" stroke="transparent" points="403.5,-10 403.5,-30 423.5,-30 423.5,-10 403.5,-10"/>
<text text-anchor="start" x="427.17" y="-15.4" font-family="Times-12" font-size="14.00"> &#160;Providers</text>
<polygon fill="#fb8072" stroke="transparent" points="499.5,-10 499.5,-30 519.5,-30 519.5,-10 499.5,-10"/>
<text text-anchor="start" x="523.23" y="-15.4" font-family="Times-12" font-size="14.00"> &#160;Exports</text>
<g id="clust1" class="cluster">
<title>cluster_HomeworksModule</title>
<polygon fill="none" stroke="black" stroke-dasharray="1,5" points="8,-70 8,-195 675,-195 675,-70 8,-70"/>
</g>
<g id="clust6" class="cluster">
<title>cluster_HomeworksModule_providers</title>
<polygon fill="none" stroke="black" points="257,-78 257,-130 667,-130 667,-78 257,-78"/>
</g>
<g id="clust3" class="cluster">
<title>cluster_HomeworksModule_imports</title>
<polygon fill="none" stroke="black" points="16,-78 16,-130 249,-130 249,-78 16,-78"/>
</g>
<!-- PrismaModule -->
<g id="node1" class="node">
<title>PrismaModule</title>
<polygon fill="#8dd3c7" stroke="black" points="241.43,-122 238.43,-126 217.43,-126 214.43,-122 142.57,-122 142.57,-86 241.43,-86 241.43,-122"/>
<text text-anchor="middle" x="192" y="-99.8" font-family="Times,serif" font-size="14.00">PrismaModule</text>
</g>
<!-- HomeworksModule -->
<g id="node3" class="node">
<title>HomeworksModule</title>
<polygon fill="#8dd3c7" stroke="black" points="335.97,-187 332.97,-191 311.97,-191 308.97,-187 208.03,-187 208.03,-151 335.97,-151 335.97,-187"/>
<text text-anchor="middle" x="272" y="-164.8" font-family="Times,serif" font-size="14.00">HomeworksModule</text>
</g>
<!-- PrismaModule&#45;&gt;HomeworksModule -->
<g id="edge1" class="edge">
<title>PrismaModule&#45;&gt;HomeworksModule</title>
<path fill="none" stroke="black" d="M224.62,-122.11C224.62,-122.11 224.62,-140.99 224.62,-140.99"/>
<polygon fill="black" stroke="black" points="221.12,-140.99 224.62,-150.99 228.12,-140.99 221.12,-140.99"/>
</g>
<!-- UploadModule -->
<g id="node2" class="node">
<title>UploadModule</title>
<polygon fill="#8dd3c7" stroke="black" points="124.26,-122 121.26,-126 100.26,-126 97.26,-122 23.74,-122 23.74,-86 124.26,-86 124.26,-122"/>
<text text-anchor="middle" x="74" y="-99.8" font-family="Times,serif" font-size="14.00">UploadModule</text>
</g>
<!-- UploadModule&#45;&gt;HomeworksModule -->
<g id="edge2" class="edge">
<title>UploadModule&#45;&gt;HomeworksModule</title>
<path fill="none" stroke="black" d="M74,-122.11C74,-141.34 74,-169 74,-169 74,-169 197.99,-169 197.99,-169"/>
<polygon fill="black" stroke="black" points="197.99,-172.5 207.99,-169 197.99,-165.5 197.99,-172.5"/>
</g>
<!-- HomeworksRepository -->
<g id="node4" class="node">
<title>HomeworksRepository</title>
<ellipse fill="#fdb462" stroke="black" cx="558" cy="-104" rx="100.72" ry="18"/>
<text text-anchor="middle" x="558" y="-99.8" font-family="Times,serif" font-size="14.00">HomeworksRepository</text>
</g>
<!-- HomeworksRepository&#45;&gt;HomeworksModule -->
<g id="edge3" class="edge">
<title>HomeworksRepository&#45;&gt;HomeworksModule</title>
<path fill="none" stroke="black" d="M558,-122.11C558,-141.34 558,-169 558,-169 558,-169 346.18,-169 346.18,-169"/>
<polygon fill="black" stroke="black" points="346.18,-165.5 336.18,-169 346.18,-172.5 346.18,-165.5"/>
</g>
<!-- HomeworksService -->
<g id="node5" class="node">
<title>HomeworksService</title>
<ellipse fill="#fdb462" stroke="black" cx="352" cy="-104" rx="87.38" ry="18"/>
<text text-anchor="middle" x="352" y="-99.8" font-family="Times,serif" font-size="14.00">HomeworksService</text>
</g>
<!-- HomeworksService&#45;&gt;HomeworksModule -->
<g id="edge4" class="edge">
<title>HomeworksService&#45;&gt;HomeworksModule</title>
<path fill="none" stroke="black" d="M300.4,-118.75C300.4,-118.75 300.4,-140.59 300.4,-140.59"/>
<polygon fill="black" stroke="black" points="296.9,-140.59 300.4,-150.59 303.9,-140.59 296.9,-140.59"/>
</g>
</g>
</svg>
