<?xml version="1.0" encoding="UTF-8" standalone="no"?>
<!DOCTYPE svg PUBLIC "-//W3C//DTD SVG 1.1//EN"
 "http://www.w3.org/Graphics/SVG/1.1/DTD/svg11.dtd">
<!-- Generated by graphviz version 2.47.0 (20210316.0004)
 -->
<!-- Title: dependencies Pages: 1 -->
<svg width="789pt" height="211pt"
 viewBox="0.00 0.00 789.00 211.00" xmlns="http://www.w3.org/2000/svg" xmlns:xlink="http://www.w3.org/1999/xlink">
<g id="graph0" class="graph" transform="scale(1 1) rotate(0) translate(4 207)">
<title>dependencies</title>
<polygon fill="white" stroke="transparent" points="-4,4 -4,-207 785,-207 785,4 -4,4"/>
<text text-anchor="start" x="369.51" y="-42.4" font-family="Times-12" font-weight="bold" font-size="14.00">Legend</text>
<polygon fill="#ffffb3" stroke="transparent" points="156.5,-10 156.5,-30 176.5,-30 176.5,-10 156.5,-10"/>
<text text-anchor="start" x="180.13" y="-15.4" font-family="Times-12" font-size="14.00"> &#160;Declarations</text>
<polygon fill="#8dd3c7" stroke="transparent" points="269.5,-10 269.5,-30 289.5,-30 289.5,-10 269.5,-10"/>
<text text-anchor="start" x="293.23" y="-15.4" font-family="Times-12" font-size="14.00"> &#160;Module</text>
<polygon fill="#80b1d3" stroke="transparent" points="355.5,-10 355.5,-30 375.5,-30 375.5,-10 355.5,-10"/>
<text text-anchor="start" x="379.28" y="-15.4" font-family="Times-12" font-size="14.00"> &#160;Bootstrap</text>
<polygon fill="#fdb462" stroke="transparent" points="452.5,-10 452.5,-30 472.5,-30 472.5,-10 452.5,-10"/>
<text text-anchor="start" x="476.17" y="-15.4" font-family="Times-12" font-size="14.00"> &#160;Providers</text>
<polygon fill="#fb8072" stroke="transparent" points="548.5,-10 548.5,-30 568.5,-30 568.5,-10 548.5,-10"/>
<text text-anchor="start" x="572.23" y="-15.4" font-family="Times-12" font-size="14.00"> &#160;Exports</text>
<g id="clust1" class="cluster">
<title>cluster_TeacherResponsesModule</title>
<polygon fill="none" stroke="black" stroke-dasharray="1,5" points="8,-70 8,-195 773,-195 773,-70 8,-70"/>
</g>
<g id="clust6" class="cluster">
<title>cluster_TeacherResponsesModule_providers</title>
<polygon fill="none" stroke="black" points="257,-78 257,-130 765,-130 765,-78 257,-78"/>
</g>
<g id="clust3" class="cluster">
<title>cluster_TeacherResponsesModule_imports</title>
<polygon fill="none" stroke="black" points="16,-78 16,-130 249,-130 249,-78 16,-78"/>
</g>
<!-- PrismaModule -->
<g id="node1" class="node">
<title>PrismaModule</title>
<polygon fill="#8dd3c7" stroke="black" points="241.43,-122 238.43,-126 217.43,-126 214.43,-122 142.57,-122 142.57,-86 241.43,-86 241.43,-122"/>
<text text-anchor="middle" x="192" y="-99.8" font-family="Times,serif" font-size="14.00">PrismaModule</text>
</g>
<!-- TeacherResponsesModule -->
<g id="node3" class="node">
<title>TeacherResponsesModule</title>
<polygon fill="#8dd3c7" stroke="black" points="365.72,-187 362.72,-191 341.72,-191 338.72,-187 202.28,-187 202.28,-151 365.72,-151 365.72,-187"/>
<text text-anchor="middle" x="284" y="-164.8" font-family="Times,serif" font-size="14.00">TeacherResponsesModule</text>
</g>
<!-- PrismaModule&#45;&gt;TeacherResponsesModule -->
<g id="edge1" class="edge">
<title>PrismaModule&#45;&gt;TeacherResponsesModule</title>
<path fill="none" stroke="black" d="M221.68,-122.11C221.68,-122.11 221.68,-140.99 221.68,-140.99"/>
<polygon fill="black" stroke="black" points="218.18,-140.99 221.68,-150.99 225.18,-140.99 218.18,-140.99"/>
</g>
<!-- UploadModule -->
<g id="node2" class="node">
<title>UploadModule</title>
<polygon fill="#8dd3c7" stroke="black" points="124.26,-122 121.26,-126 100.26,-126 97.26,-122 23.74,-122 23.74,-86 124.26,-86 124.26,-122"/>
<text text-anchor="middle" x="74" y="-99.8" font-family="Times,serif" font-size="14.00">UploadModule</text>
</g>
<!-- UploadModule&#45;&gt;TeacherResponsesModule -->
<g id="edge2" class="edge">
<title>UploadModule&#45;&gt;TeacherResponsesModule</title>
<path fill="none" stroke="black" d="M74,-122.11C74,-141.34 74,-169 74,-169 74,-169 192.21,-169 192.21,-169"/>
<polygon fill="black" stroke="black" points="192.21,-172.5 202.21,-169 192.21,-165.5 192.21,-172.5"/>
</g>
<!-- TeacherResponsesRepository -->
<g id="node4" class="node">
<title>TeacherResponsesRepository</title>
<ellipse fill="#fdb462" stroke="black" cx="632" cy="-104" rx="125.04" ry="18"/>
<text text-anchor="middle" x="632" y="-99.8" font-family="Times,serif" font-size="14.00">TeacherResponsesRepository</text>
</g>
<!-- TeacherResponsesRepository&#45;&gt;TeacherResponsesModule -->
<g id="edge3" class="edge">
<title>TeacherResponsesRepository&#45;&gt;TeacherResponsesModule</title>
<path fill="none" stroke="black" d="M632,-122.11C632,-141.34 632,-169 632,-169 632,-169 376.03,-169 376.03,-169"/>
<polygon fill="black" stroke="black" points="376.03,-165.5 366.03,-169 376.03,-172.5 376.03,-165.5"/>
</g>
<!-- TeacherResponsesService -->
<g id="node5" class="node">
<title>TeacherResponsesService</title>
<ellipse fill="#fdb462" stroke="black" cx="377" cy="-104" rx="111.69" ry="18"/>
<text text-anchor="middle" x="377" y="-99.8" font-family="Times,serif" font-size="14.00">TeacherResponsesService</text>
</g>
<!-- TeacherResponsesService&#45;&gt;TeacherResponsesModule -->
<g id="edge4" class="edge">
<title>TeacherResponsesService&#45;&gt;TeacherResponsesModule</title>
<path fill="none" stroke="black" d="M315.51,-119.08C315.51,-119.08 315.51,-140.76 315.51,-140.76"/>
<polygon fill="black" stroke="black" points="312.01,-140.76 315.51,-150.76 319.01,-140.76 312.01,-140.76"/>
</g>
</g>
</svg>
