<?xml version="1.0" encoding="UTF-8" standalone="no"?>
<!DOCTYPE svg PUBLIC "-//W3C//DTD SVG 1.1//EN"
 "http://www.w3.org/Graphics/SVG/1.1/DTD/svg11.dtd">
<!-- Generated by graphviz version 2.47.0 (20210316.0004)
 -->
<!-- Title: dependencies Pages: 1 -->
<svg width="504pt" height="284pt"
 viewBox="0.00 0.00 504.00 284.00" xmlns="http://www.w3.org/2000/svg" xmlns:xlink="http://www.w3.org/1999/xlink">
<g id="graph0" class="graph" transform="scale(1 1) rotate(0) translate(4 280)">
<title>dependencies</title>
<polygon fill="white" stroke="transparent" points="-4,4 -4,-280 500,-280 500,4 -4,4"/>
<text text-anchor="start" x="227.01" y="-42.4" font-family="Times-12" font-weight="bold" font-size="14.00">Legend</text>
<polygon fill="#ffffb3" stroke="transparent" points="14,-10 14,-30 34,-30 34,-10 14,-10"/>
<text text-anchor="start" x="37.63" y="-15.4" font-family="Times-12" font-size="14.00"> &#160;Declarations</text>
<polygon fill="#8dd3c7" stroke="transparent" points="127,-10 127,-30 147,-30 147,-10 127,-10"/>
<text text-anchor="start" x="150.73" y="-15.4" font-family="Times-12" font-size="14.00"> &#160;Module</text>
<polygon fill="#80b1d3" stroke="transparent" points="213,-10 213,-30 233,-30 233,-10 213,-10"/>
<text text-anchor="start" x="236.78" y="-15.4" font-family="Times-12" font-size="14.00"> &#160;Bootstrap</text>
<polygon fill="#fdb462" stroke="transparent" points="310,-10 310,-30 330,-30 330,-10 310,-10"/>
<text text-anchor="start" x="333.67" y="-15.4" font-family="Times-12" font-size="14.00"> &#160;Providers</text>
<polygon fill="#fb8072" stroke="transparent" points="406,-10 406,-30 426,-30 426,-10 406,-10"/>
<text text-anchor="start" x="429.73" y="-15.4" font-family="Times-12" font-size="14.00"> &#160;Exports</text>
<g id="clust1" class="cluster">
<title>cluster_UploadModule</title>
<polygon fill="none" stroke="black" stroke-dasharray="1,5" points="12,-70 12,-268 484,-268 484,-70 12,-70"/>
</g>
<g id="clust6" class="cluster">
<title>cluster_UploadModule_providers</title>
<polygon fill="none" stroke="black" points="142,-78 142,-130 476,-130 476,-78 142,-78"/>
</g>
<g id="clust3" class="cluster">
<title>cluster_UploadModule_imports</title>
<polygon fill="none" stroke="black" points="20,-78 20,-130 134,-130 134,-78 20,-78"/>
</g>
<g id="clust4" class="cluster">
<title>cluster_UploadModule_exports</title>
<polygon fill="none" stroke="black" points="159,-208 159,-260 277,-260 277,-208 159,-208"/>
</g>
<!-- PrismaModule -->
<g id="node1" class="node">
<title>PrismaModule</title>
<polygon fill="#8dd3c7" stroke="black" points="126.43,-122 123.43,-126 102.43,-126 99.43,-122 27.57,-122 27.57,-86 126.43,-86 126.43,-122"/>
<text text-anchor="middle" x="77" y="-99.8" font-family="Times,serif" font-size="14.00">PrismaModule</text>
</g>
<!-- UploadModule -->
<g id="node2" class="node">
<title>UploadModule</title>
<polygon fill="#8dd3c7" stroke="black" points="268.26,-187 265.26,-191 244.26,-191 241.26,-187 167.74,-187 167.74,-151 268.26,-151 268.26,-187"/>
<text text-anchor="middle" x="218" y="-164.8" font-family="Times,serif" font-size="14.00">UploadModule</text>
</g>
<!-- PrismaModule&#45;&gt;UploadModule -->
<g id="edge1" class="edge">
<title>PrismaModule&#45;&gt;UploadModule</title>
<path fill="none" stroke="black" d="M77,-122.11C77,-141.34 77,-169 77,-169 77,-169 157.49,-169 157.49,-169"/>
<polygon fill="black" stroke="black" points="157.49,-172.5 167.49,-169 157.49,-165.5 157.49,-172.5"/>
</g>
<!-- UploadService  -->
<g id="node3" class="node">
<title>UploadService </title>
<polygon fill="#fb8072" stroke="black" points="269.19,-252 166.81,-252 166.81,-216 269.19,-216 269.19,-252"/>
<text text-anchor="middle" x="218" y="-229.8" font-family="Times,serif" font-size="14.00">UploadService </text>
</g>
<!-- UploadModule&#45;&gt;UploadService  -->
<g id="edge2" class="edge">
<title>UploadModule&#45;&gt;UploadService </title>
<path fill="none" stroke="black" stroke-dasharray="5,2" d="M218,-187.11C218,-187.11 218,-205.99 218,-205.99"/>
<polygon fill="black" stroke="black" points="214.5,-205.99 218,-215.99 221.5,-205.99 214.5,-205.99"/>
</g>
<!-- UploadRepository -->
<g id="node4" class="node">
<title>UploadRepository</title>
<ellipse fill="#fdb462" stroke="black" cx="386" cy="-104" rx="81.68" ry="18"/>
<text text-anchor="middle" x="386" y="-99.8" font-family="Times,serif" font-size="14.00">UploadRepository</text>
</g>
<!-- UploadRepository&#45;&gt;UploadModule -->
<g id="edge3" class="edge">
<title>UploadRepository&#45;&gt;UploadModule</title>
<path fill="none" stroke="black" d="M386,-122.11C386,-141.34 386,-169 386,-169 386,-169 278.41,-169 278.41,-169"/>
<polygon fill="black" stroke="black" points="278.41,-165.5 268.41,-169 278.41,-172.5 278.41,-165.5"/>
</g>
<!-- UploadService -->
<g id="node5" class="node">
<title>UploadService</title>
<ellipse fill="#fdb462" stroke="black" cx="218" cy="-104" rx="68.34" ry="18"/>
<text text-anchor="middle" x="218" y="-99.8" font-family="Times,serif" font-size="14.00">UploadService</text>
</g>
<!-- UploadService&#45;&gt;UploadModule -->
<g id="edge4" class="edge">
<title>UploadService&#45;&gt;UploadModule</title>
<path fill="none" stroke="black" d="M218,-122.11C218,-122.11 218,-140.99 218,-140.99"/>
<polygon fill="black" stroke="black" points="214.5,-140.99 218,-150.99 221.5,-140.99 214.5,-140.99"/>
</g>
</g>
</svg>
