<?xml version="1.0" encoding="UTF-8" standalone="no"?>
<!DOCTYPE svg PUBLIC "-//W3C//DTD SVG 1.1//EN"
 "http://www.w3.org/Graphics/SVG/1.1/DTD/svg11.dtd">
<!-- Generated by graphviz version 2.47.0 (20210316.0004)
 -->
<!-- Title: dependencies Pages: 1 -->
<svg width="647pt" height="211pt"
 viewBox="0.00 0.00 647.00 211.00" xmlns="http://www.w3.org/2000/svg" xmlns:xlink="http://www.w3.org/1999/xlink">
<g id="graph0" class="graph" transform="scale(1 1) rotate(0) translate(4 207)">
<title>dependencies</title>
<polygon fill="white" stroke="transparent" points="-4,4 -4,-207 643,-207 643,4 -4,4"/>
<text text-anchor="start" x="298.51" y="-42.4" font-family="Times-12" font-weight="bold" font-size="14.00">Legend</text>
<polygon fill="#ffffb3" stroke="transparent" points="85.5,-10 85.5,-30 105.5,-30 105.5,-10 85.5,-10"/>
<text text-anchor="start" x="109.13" y="-15.4" font-family="Times-12" font-size="14.00"> &#160;Declarations</text>
<polygon fill="#8dd3c7" stroke="transparent" points="198.5,-10 198.5,-30 218.5,-30 218.5,-10 198.5,-10"/>
<text text-anchor="start" x="222.23" y="-15.4" font-family="Times-12" font-size="14.00"> &#160;Module</text>
<polygon fill="#80b1d3" stroke="transparent" points="284.5,-10 284.5,-30 304.5,-30 304.5,-10 284.5,-10"/>
<text text-anchor="start" x="308.28" y="-15.4" font-family="Times-12" font-size="14.00"> &#160;Bootstrap</text>
<polygon fill="#fdb462" stroke="transparent" points="381.5,-10 381.5,-30 401.5,-30 401.5,-10 381.5,-10"/>
<text text-anchor="start" x="405.17" y="-15.4" font-family="Times-12" font-size="14.00"> &#160;Providers</text>
<polygon fill="#fb8072" stroke="transparent" points="477.5,-10 477.5,-30 497.5,-30 497.5,-10 477.5,-10"/>
<text text-anchor="start" x="501.23" y="-15.4" font-family="Times-12" font-size="14.00"> &#160;Exports</text>
<g id="clust1" class="cluster">
<title>cluster_SolutionsModule</title>
<polygon fill="none" stroke="black" stroke-dasharray="1,5" points="8,-70 8,-195 631,-195 631,-70 8,-70"/>
</g>
<g id="clust3" class="cluster">
<title>cluster_SolutionsModule_imports</title>
<polygon fill="none" stroke="black" points="390,-78 390,-130 623,-130 623,-78 390,-78"/>
</g>
<g id="clust6" class="cluster">
<title>cluster_SolutionsModule_providers</title>
<polygon fill="none" stroke="black" points="16,-78 16,-130 382,-130 382,-78 16,-78"/>
</g>
<!-- PrismaModule -->
<g id="node1" class="node">
<title>PrismaModule</title>
<polygon fill="#8dd3c7" stroke="black" points="615.43,-122 612.43,-126 591.43,-126 588.43,-122 516.57,-122 516.57,-86 615.43,-86 615.43,-122"/>
<text text-anchor="middle" x="566" y="-99.8" font-family="Times,serif" font-size="14.00">PrismaModule</text>
</g>
<!-- SolutionsModule -->
<g id="node3" class="node">
<title>SolutionsModule</title>
<polygon fill="#8dd3c7" stroke="black" points="422.45,-187 419.45,-191 398.45,-191 395.45,-187 309.55,-187 309.55,-151 422.45,-151 422.45,-187"/>
<text text-anchor="middle" x="366" y="-164.8" font-family="Times,serif" font-size="14.00">SolutionsModule</text>
</g>
<!-- PrismaModule&#45;&gt;SolutionsModule -->
<g id="edge1" class="edge">
<title>PrismaModule&#45;&gt;SolutionsModule</title>
<path fill="none" stroke="black" d="M566,-122.11C566,-141.34 566,-169 566,-169 566,-169 432.24,-169 432.24,-169"/>
<polygon fill="black" stroke="black" points="432.24,-165.5 422.24,-169 432.24,-172.5 432.24,-165.5"/>
</g>
<!-- UploadModule -->
<g id="node2" class="node">
<title>UploadModule</title>
<polygon fill="#8dd3c7" stroke="black" points="498.26,-122 495.26,-126 474.26,-126 471.26,-122 397.74,-122 397.74,-86 498.26,-86 498.26,-122"/>
<text text-anchor="middle" x="448" y="-99.8" font-family="Times,serif" font-size="14.00">UploadModule</text>
</g>
<!-- UploadModule&#45;&gt;SolutionsModule -->
<g id="edge2" class="edge">
<title>UploadModule&#45;&gt;SolutionsModule</title>
<path fill="none" stroke="black" d="M409.92,-122.11C409.92,-122.11 409.92,-140.99 409.92,-140.99"/>
<polygon fill="black" stroke="black" points="406.42,-140.99 409.92,-150.99 413.42,-140.99 406.42,-140.99"/>
</g>
<!-- SolutionsRepository -->
<g id="node4" class="node">
<title>SolutionsRepository</title>
<ellipse fill="#fdb462" stroke="black" cx="284" cy="-104" rx="89.81" ry="18"/>
<text text-anchor="middle" x="284" y="-99.8" font-family="Times,serif" font-size="14.00">SolutionsRepository</text>
</g>
<!-- SolutionsRepository&#45;&gt;SolutionsModule -->
<g id="edge3" class="edge">
<title>SolutionsRepository&#45;&gt;SolutionsModule</title>
<path fill="none" stroke="black" d="M341.84,-117.78C341.84,-117.78 341.84,-140.55 341.84,-140.55"/>
<polygon fill="black" stroke="black" points="338.34,-140.55 341.84,-150.55 345.34,-140.55 338.34,-140.55"/>
</g>
<!-- SolutionsService -->
<g id="node5" class="node">
<title>SolutionsService</title>
<ellipse fill="#fdb462" stroke="black" cx="100" cy="-104" rx="76.46" ry="18"/>
<text text-anchor="middle" x="100" y="-99.8" font-family="Times,serif" font-size="14.00">SolutionsService</text>
</g>
<!-- SolutionsService&#45;&gt;SolutionsModule -->
<g id="edge4" class="edge">
<title>SolutionsService&#45;&gt;SolutionsModule</title>
<path fill="none" stroke="black" d="M100,-122.11C100,-141.34 100,-169 100,-169 100,-169 299.59,-169 299.59,-169"/>
<polygon fill="black" stroke="black" points="299.59,-172.5 309.59,-169 299.59,-165.5 299.59,-172.5"/>
</g>
</g>
</svg>
