<?xml version="1.0" encoding="UTF-8" standalone="no"?>
<!DOCTYPE svg PUBLIC "-//W3C//DTD SVG 1.1//EN"
 "http://www.w3.org/Graphics/SVG/1.1/DTD/svg11.dtd">
<!-- Generated by graphviz version 2.47.0 (20210316.0004)
 -->
<!-- Title: dependencies Pages: 1 -->
<svg width="974pt" height="211pt"
 viewBox="0.00 0.00 974.00 211.00" xmlns="http://www.w3.org/2000/svg" xmlns:xlink="http://www.w3.org/1999/xlink">
<g id="graph0" class="graph" transform="scale(1 1) rotate(0) translate(4 207)">
<title>dependencies</title>
<polygon fill="white" stroke="transparent" points="-4,4 -4,-207 970,-207 970,4 -4,4"/>
<text text-anchor="start" x="462.01" y="-42.4" font-family="Times-12" font-weight="bold" font-size="14.00">Legend</text>
<polygon fill="#ffffb3" stroke="transparent" points="249,-10 249,-30 269,-30 269,-10 249,-10"/>
<text text-anchor="start" x="272.63" y="-15.4" font-family="Times-12" font-size="14.00"> &#160;Declarations</text>
<polygon fill="#8dd3c7" stroke="transparent" points="362,-10 362,-30 382,-30 382,-10 362,-10"/>
<text text-anchor="start" x="385.73" y="-15.4" font-family="Times-12" font-size="14.00"> &#160;Module</text>
<polygon fill="#80b1d3" stroke="transparent" points="448,-10 448,-30 468,-30 468,-10 448,-10"/>
<text text-anchor="start" x="471.78" y="-15.4" font-family="Times-12" font-size="14.00"> &#160;Bootstrap</text>
<polygon fill="#fdb462" stroke="transparent" points="545,-10 545,-30 565,-30 565,-10 545,-10"/>
<text text-anchor="start" x="568.67" y="-15.4" font-family="Times-12" font-size="14.00"> &#160;Providers</text>
<polygon fill="#fb8072" stroke="transparent" points="641,-10 641,-30 661,-30 661,-10 641,-10"/>
<text text-anchor="start" x="664.73" y="-15.4" font-family="Times-12" font-size="14.00"> &#160;Exports</text>
<g id="clust1" class="cluster">
<title>cluster_AppModule</title>
<polygon fill="none" stroke="black" stroke-dasharray="1,5" points="8,-70 8,-195 958,-195 958,-70 8,-70"/>
</g>
<g id="clust3" class="cluster">
<title>cluster_AppModule_imports</title>
<polygon fill="none" stroke="black" points="154,-78 154,-130 950,-130 950,-78 154,-78"/>
</g>
<g id="clust6" class="cluster">
<title>cluster_AppModule_providers</title>
<polygon fill="none" stroke="black" points="16,-78 16,-130 146,-130 146,-78 16,-78"/>
</g>
<!-- AuthModule -->
<g id="node1" class="node">
<title>AuthModule</title>
<polygon fill="#8dd3c7" stroke="black" points="941.55,-122 938.55,-126 917.55,-126 914.55,-122 854.45,-122 854.45,-86 941.55,-86 941.55,-122"/>
<text text-anchor="middle" x="898" y="-99.8" font-family="Times,serif" font-size="14.00">AuthModule</text>
</g>
<!-- AppModule -->
<g id="node7" class="node">
<title>AppModule</title>
<polygon fill="#8dd3c7" stroke="black" points="559.66,-187 556.66,-191 535.66,-191 532.66,-187 476.34,-187 476.34,-151 559.66,-151 559.66,-187"/>
<text text-anchor="middle" x="518" y="-164.8" font-family="Times,serif" font-size="14.00">AppModule</text>
</g>
<!-- AuthModule&#45;&gt;AppModule -->
<g id="edge1" class="edge">
<title>AuthModule&#45;&gt;AppModule</title>
<path fill="none" stroke="black" d="M898,-122.29C898,-144.21 898,-178 898,-178 898,-178 569.75,-178 569.75,-178"/>
<polygon fill="black" stroke="black" points="569.75,-174.5 559.75,-178 569.75,-181.5 569.75,-174.5"/>
</g>
<!-- EventsModule -->
<g id="node2" class="node">
<title>EventsModule</title>
<polygon fill="#8dd3c7" stroke="black" points="835.65,-122 832.65,-126 811.65,-126 808.65,-122 738.35,-122 738.35,-86 835.65,-86 835.65,-122"/>
<text text-anchor="middle" x="787" y="-99.8" font-family="Times,serif" font-size="14.00">EventsModule</text>
</g>
<!-- EventsModule&#45;&gt;AppModule -->
<g id="edge2" class="edge">
<title>EventsModule&#45;&gt;AppModule</title>
<path fill="none" stroke="black" d="M787,-122.11C787,-141.34 787,-169 787,-169 787,-169 569.74,-169 569.74,-169"/>
<polygon fill="black" stroke="black" points="569.74,-165.5 559.74,-169 569.74,-172.5 569.74,-165.5"/>
</g>
<!-- HomeworksModule -->
<g id="node3" class="node">
<title>HomeworksModule</title>
<polygon fill="#8dd3c7" stroke="black" points="719.97,-122 716.97,-126 695.97,-126 692.97,-122 592.03,-122 592.03,-86 719.97,-86 719.97,-122"/>
<text text-anchor="middle" x="656" y="-99.8" font-family="Times,serif" font-size="14.00">HomeworksModule</text>
</g>
<!-- HomeworksModule&#45;&gt;AppModule -->
<g id="edge3" class="edge">
<title>HomeworksModule&#45;&gt;AppModule</title>
<path fill="none" stroke="black" d="M656,-122.03C656,-138.4 656,-160 656,-160 656,-160 569.78,-160 569.78,-160"/>
<polygon fill="black" stroke="black" points="569.78,-156.5 559.78,-160 569.78,-163.5 569.78,-156.5"/>
</g>
<!-- SolutionsModule -->
<g id="node4" class="node">
<title>SolutionsModule</title>
<polygon fill="#8dd3c7" stroke="black" points="574.45,-122 571.45,-126 550.45,-126 547.45,-122 461.55,-122 461.55,-86 574.45,-86 574.45,-122"/>
<text text-anchor="middle" x="518" y="-99.8" font-family="Times,serif" font-size="14.00">SolutionsModule</text>
</g>
<!-- SolutionsModule&#45;&gt;AppModule -->
<g id="edge4" class="edge">
<title>SolutionsModule&#45;&gt;AppModule</title>
<path fill="none" stroke="black" d="M518,-122.11C518,-122.11 518,-140.99 518,-140.99"/>
<polygon fill="black" stroke="black" points="514.5,-140.99 518,-150.99 521.5,-140.99 514.5,-140.99"/>
</g>
<!-- TeacherResponsesModule -->
<g id="node5" class="node">
<title>TeacherResponsesModule</title>
<polygon fill="#8dd3c7" stroke="black" points="443.72,-122 440.72,-126 419.72,-126 416.72,-122 280.28,-122 280.28,-86 443.72,-86 443.72,-122"/>
<text text-anchor="middle" x="362" y="-99.8" font-family="Times,serif" font-size="14.00">TeacherResponsesModule</text>
</g>
<!-- TeacherResponsesModule&#45;&gt;AppModule -->
<g id="edge5" class="edge">
<title>TeacherResponsesModule&#45;&gt;AppModule</title>
<path fill="none" stroke="black" d="M362,-122.03C362,-138.4 362,-160 362,-160 362,-160 466.19,-160 466.19,-160"/>
<polygon fill="black" stroke="black" points="466.19,-163.5 476.19,-160 466.19,-156.5 466.19,-163.5"/>
</g>
<!-- UploadModule -->
<g id="node6" class="node">
<title>UploadModule</title>
<polygon fill="#8dd3c7" stroke="black" points="262.26,-122 259.26,-126 238.26,-126 235.26,-122 161.74,-122 161.74,-86 262.26,-86 262.26,-122"/>
<text text-anchor="middle" x="212" y="-99.8" font-family="Times,serif" font-size="14.00">UploadModule</text>
</g>
<!-- UploadModule&#45;&gt;AppModule -->
<g id="edge6" class="edge">
<title>UploadModule&#45;&gt;AppModule</title>
<path fill="none" stroke="black" d="M212,-122.11C212,-141.34 212,-169 212,-169 212,-169 466.09,-169 466.09,-169"/>
<polygon fill="black" stroke="black" points="466.09,-172.5 476.09,-169 466.09,-165.5 466.09,-172.5"/>
</g>
<!-- AppService -->
<g id="node8" class="node">
<title>AppService</title>
<ellipse fill="#fdb462" stroke="black" cx="81" cy="-104" rx="56.74" ry="18"/>
<text text-anchor="middle" x="81" y="-99.8" font-family="Times,serif" font-size="14.00">AppService</text>
</g>
<!-- AppService&#45;&gt;AppModule -->
<g id="edge7" class="edge">
<title>AppService&#45;&gt;AppModule</title>
<path fill="none" stroke="black" d="M81,-122.29C81,-144.21 81,-178 81,-178 81,-178 466.1,-178 466.1,-178"/>
<polygon fill="black" stroke="black" points="466.1,-181.5 476.1,-178 466.1,-174.5 466.1,-181.5"/>
</g>
</g>
</svg>
